# xmcd CD database file
#
# Track frame offsets:
#	150
#	16415
#	32680
#	53948
#	70898
#	100353
#	129198
#	147613
#	163975
#	183343
#	213565
#
# Disc length: 3003 seconds
#
# Revision: 0
# Processed by: cddbd v1.5PL3 Copyright (c) Steve Scherf et al.
# Submitted via: CDex 1.50Beta6
#
DISCID=a30bb90b
DTITLE=ends - ADVENTURE 48
DYEAR=2000
DGENRE=JPop
TTITLE0=ROBA
TTITLE1=BARMY
TTITLE2=SWEET DREAMS FOREVER
TTITLE3=モンスター
TTITLE4=すべてに等しく吹きつける風のように
TTITLE5=NOMADS
TTITLE6=SUNDAY
TTITLE7=FREE FALL
TTITLE8=反逆
TTITLE9=PASSENGERS
TTITLE10=POD
EXTD=YEAR: 2000
EXTT0=
EXTT1=
EXTT2=
EXTT3=
EXTT4=
EXTT5=
EXTT6=
EXTT7=
EXTT8=
EXTT9=
EXTT10=
PLAYORDER=
